<svg class="main-svg" xmlns="http://www.w3.org/2000/svg" xmlns:xlink="http://www.w3.org/1999/xlink" width="1200" height="600" style="" viewBox="0 0 1200 600"><rect x="0" y="0" width="1200" height="600" style="fill: rgb(255, 255, 255); fill-opacity: 1;"/><defs id="defs-0ebab8"><g class="clips"><clipPath id="clip0ebab8xyplot" class="plotclip"><rect width="1152" height="502"/></clipPath><clipPath class="axesclip" id="clip0ebab8x"><rect x="48" y="0" width="1152" height="600"/></clipPath><clipPath class="axesclip" id="clip0ebab8y"><rect x="0" y="0" width="1200" height="502"/></clipPath><clipPath class="axesclip" id="clip0ebab8xy"><rect x="48" y="0" width="1152" height="502"/></clipPath></g><g class="gradients"/><g class="patterns"/></defs><g class="bglayer"/><g class="layer-below"><g class="imagelayer"/><g class="shapelayer"/></g><g class="cartesianlayer"><g class="subplot xy"><g class="layer-subplot"><g class="shapelayer"/><g class="imagelayer"/></g><g class="gridlayer"><g class="x"><path class="xgrid crisp" transform="translate(262.96000000000004,0)" d="M0,0v502" style="stroke: rgb(209, 217, 225); stroke-opacity: 1; stroke-width: 1px;"/><path class="xgrid crisp" transform="translate(416.58,0)" d="M0,0v502" style="stroke: rgb(209, 217, 225); stroke-opacity: 1; stroke-width: 1px;"/><path class="xgrid crisp" transform="translate(570.19,0)" d="M0,0v502" style="stroke: rgb(209, 217, 225); stroke-opacity: 1; stroke-width: 1px;"/><path class="xgrid crisp" transform="translate(723.8,0)" d="M0,0v502" style="stroke: rgb(209, 217, 225); stroke-opacity: 1; stroke-width: 1px;"/><path class="xgrid crisp" transform="translate(877.41,0)" d="M0,0v502" style="stroke: rgb(209, 217, 225); stroke-opacity: 1; stroke-width: 1px;"/><path class="xgrid crisp" transform="translate(1031.03,0)" d="M0,0v502" style="stroke: rgb(209, 217, 225); stroke-opacity: 1; stroke-width: 1px;"/><path class="xgrid crisp" transform="translate(1184.64,0)" d="M0,0v502" style="stroke: rgb(209, 217, 225); stroke-opacity: 1; stroke-width: 1px;"/></g><g class="y"><path class="ygrid crisp" transform="translate(0,461.64)" d="M48,0h1152" style="stroke: rgb(209, 217, 225); stroke-opacity: 1; stroke-width: 1px;"/><path class="ygrid crisp" transform="translate(0,402.87)" d="M48,0h1152" style="stroke: rgb(209, 217, 225); stroke-opacity: 1; stroke-width: 1px;"/><path class="ygrid crisp" transform="translate(0,344.11)" d="M48,0h1152" style="stroke: rgb(209, 217, 225); stroke-opacity: 1; stroke-width: 1px;"/><path class="ygrid crisp" transform="translate(0,285.34)" d="M48,0h1152" style="stroke: rgb(209, 217, 225); stroke-opacity: 1; stroke-width: 1px;"/><path class="ygrid crisp" transform="translate(0,226.58)" d="M48,0h1152" style="stroke: rgb(209, 217, 225); stroke-opacity: 1; stroke-width: 1px;"/><path class="ygrid crisp" transform="translate(0,167.81)" d="M48,0h1152" style="stroke: rgb(209, 217, 225); stroke-opacity: 1; stroke-width: 1px;"/><path class="ygrid crisp" transform="translate(0,109.04)" d="M48,0h1152" style="stroke: rgb(209, 217, 225); stroke-opacity: 1; stroke-width: 1px;"/><path class="ygrid crisp" transform="translate(0,50.28)" d="M48,0h1152" style="stroke: rgb(209, 217, 225); stroke-opacity: 1; stroke-width: 1px;"/></g></g><g class="zerolinelayer"><path class="xzl zl crisp" transform="translate(109.35,0)" d="M0,0v502" style="stroke: rgb(68, 68, 68); stroke-opacity: 1; stroke-width: 1px;"/></g><path class="xlines-below"/><path class="ylines-below"/><g class="overlines-below"/><g class="xaxislayer-below"/><g class="yaxislayer-below"/><g class="overaxes-below"/><g class="plot" transform="translate(48,0)" clip-path="url(#clip0ebab8xyplot)"><g class="scatterlayer mlayer"><g class="trace scatter trace042728" style="stroke-miterlimit: 2; opacity: 1;"><g class="fills"/><g class="errorbars"/><g class="lines"><path class="js-line" style="vector-effect: non-scaling-stroke; fill: none; stroke: rgb(4, 134, 125); stroke-opacity: 1; stroke-width: 2px; opacity: 1;" d="M61.35,405.47L76.71,295.08L92.07,321.06L107.43,243.13L122.8,243.13L138.16,171.71L153.52,178.2L168.88,204.17L184.24,171.71L199.6,184.69L214.96,171.71L230.32,152.23L245.69,165.21L261.05,178.2L276.41,145.73L291.77,191.19L307.13,139.24L322.49,87.29L337.85,119.76L353.21,87.29L368.58,119.76L383.94,106.77L399.3,119.76L414.66,152.23L430.02,93.78L445.38,106.77L460.74,87.29L476.1,113.27L491.47,74.3L506.83,28.85L522.19,87.29L537.55,119.76L552.91,74.3L568.27,106.77L583.63,67.81L598.99,113.27L614.36,54.82L629.72,35.34L645.08,54.82L660.44,48.33L675.8,93.78L691.16,28.85"/></g><g class="points"><path class="point" transform="translate(61.35,405.47)" style="opacity: 1; stroke-width: 0px; fill: rgb(4, 134, 125); fill-opacity: 1;" d="M3,0A3,3 0 1,1 0,-3A3,3 0 0,1 3,0Z"/><path class="point" transform="translate(76.71,295.08)" style="opacity: 1; stroke-width: 0px; fill: rgb(4, 134, 125); fill-opacity: 1;" d="M3,0A3,3 0 1,1 0,-3A3,3 0 0,1 3,0Z"/><path class="point" transform="translate(92.07,321.06)" style="opacity: 1; stroke-width: 0px; fill: rgb(4, 134, 125); fill-opacity: 1;" d="M3,0A3,3 0 1,1 0,-3A3,3 0 0,1 3,0Z"/><path class="point" transform="translate(107.43,243.13)" style="opacity: 1; stroke-width: 0px; fill: rgb(4, 134, 125); fill-opacity: 1;" d="M3,0A3,3 0 1,1 0,-3A3,3 0 0,1 3,0Z"/><path class="point" transform="translate(122.8,243.13)" style="opacity: 1; stroke-width: 0px; fill: rgb(4, 134, 125); fill-opacity: 1;" d="M3,0A3,3 0 1,1 0,-3A3,3 0 0,1 3,0Z"/><path class="point" transform="translate(138.16,171.71)" style="opacity: 1; stroke-width: 0px; fill: rgb(4, 134, 125); fill-opacity: 1;" d="M3,0A3,3 0 1,1 0,-3A3,3 0 0,1 3,0Z"/><path class="point" transform="translate(153.52,178.2)" style="opacity: 1; stroke-width: 0px; fill: rgb(4, 134, 125); fill-opacity: 1;" d="M3,0A3,3 0 1,1 0,-3A3,3 0 0,1 3,0Z"/><path class="point" transform="translate(168.88,204.17)" style="opacity: 1; stroke-width: 0px; fill: rgb(4, 134, 125); fill-opacity: 1;" d="M3,0A3,3 0 1,1 0,-3A3,3 0 0,1 3,0Z"/><path class="point" transform="translate(184.24,171.71)" style="opacity: 1; stroke-width: 0px; fill: rgb(4, 134, 125); fill-opacity: 1;" d="M3,0A3,3 0 1,1 0,-3A3,3 0 0,1 3,0Z"/><path class="point" transform="translate(199.6,184.69)" style="opacity: 1; stroke-width: 0px; fill: rgb(4, 134, 125); fill-opacity: 1;" d="M3,0A3,3 0 1,1 0,-3A3,3 0 0,1 3,0Z"/><path class="point" transform="translate(214.96,171.71)" style="opacity: 1; stroke-width: 0px; fill: rgb(4, 134, 125); fill-opacity: 1;" d="M3,0A3,3 0 1,1 0,-3A3,3 0 0,1 3,0Z"/><path class="point" transform="translate(230.32,152.23)" style="opacity: 1; stroke-width: 0px; fill: rgb(4, 134, 125); fill-opacity: 1;" d="M3,0A3,3 0 1,1 0,-3A3,3 0 0,1 3,0Z"/><path class="point" transform="translate(245.69,165.21)" style="opacity: 1; stroke-width: 0px; fill: rgb(4, 134, 125); fill-opacity: 1;" d="M3,0A3,3 0 1,1 0,-3A3,3 0 0,1 3,0Z"/><path class="point" transform="translate(261.05,178.2)" style="opacity: 1; stroke-width: 0px; fill: rgb(4, 134, 125); fill-opacity: 1;" d="M3,0A3,3 0 1,1 0,-3A3,3 0 0,1 3,0Z"/><path class="point" transform="translate(276.41,145.73)" style="opacity: 1; stroke-width: 0px; fill: rgb(4, 134, 125); fill-opacity: 1;" d="M3,0A3,3 0 1,1 0,-3A3,3 0 0,1 3,0Z"/><path class="point" transform="translate(291.77,191.19)" style="opacity: 1; stroke-width: 0px; fill: rgb(4, 134, 125); fill-opacity: 1;" d="M3,0A3,3 0 1,1 0,-3A3,3 0 0,1 3,0Z"/><path class="point" transform="translate(307.13,139.24)" style="opacity: 1; stroke-width: 0px; fill: rgb(4, 134, 125); fill-opacity: 1;" d="M3,0A3,3 0 1,1 0,-3A3,3 0 0,1 3,0Z"/><path class="point" transform="translate(322.49,87.29)" style="opacity: 1; stroke-width: 0px; fill: rgb(4, 134, 125); fill-opacity: 1;" d="M3,0A3,3 0 1,1 0,-3A3,3 0 0,1 3,0Z"/><path class="point" transform="translate(337.85,119.76)" style="opacity: 1; stroke-width: 0px; fill: rgb(4, 134, 125); fill-opacity: 1;" d="M3,0A3,3 0 1,1 0,-3A3,3 0 0,1 3,0Z"/><path class="point" transform="translate(353.21,87.29)" style="opacity: 1; stroke-width: 0px; fill: rgb(4, 134, 125); fill-opacity: 1;" d="M3,0A3,3 0 1,1 0,-3A3,3 0 0,1 3,0Z"/><path class="point" transform="translate(368.58,119.76)" style="opacity: 1; stroke-width: 0px; fill: rgb(4, 134, 125); fill-opacity: 1;" d="M3,0A3,3 0 1,1 0,-3A3,3 0 0,1 3,0Z"/><path class="point" transform="translate(383.94,106.77)" style="opacity: 1; stroke-width: 0px; fill: rgb(4, 134, 125); fill-opacity: 1;" d="M3,0A3,3 0 1,1 0,-3A3,3 0 0,1 3,0Z"/><path class="point" transform="translate(399.3,119.76)" style="opacity: 1; stroke-width: 0px; fill: rgb(4, 134, 125); fill-opacity: 1;" d="M3,0A3,3 0 1,1 0,-3A3,3 0 0,1 3,0Z"/><path class="point" transform="translate(414.66,152.23)" style="opacity: 1; stroke-width: 0px; fill: rgb(4, 134, 125); fill-opacity: 1;" d="M3,0A3,3 0 1,1 0,-3A3,3 0 0,1 3,0Z"/><path class="point" transform="translate(430.02,93.78)" style="opacity: 1; stroke-width: 0px; fill: rgb(4, 134, 125); fill-opacity: 1;" d="M3,0A3,3 0 1,1 0,-3A3,3 0 0,1 3,0Z"/><path class="point" transform="translate(445.38,106.77)" style="opacity: 1; stroke-width: 0px; fill: rgb(4, 134, 125); fill-opacity: 1;" d="M3,0A3,3 0 1,1 0,-3A3,3 0 0,1 3,0Z"/><path class="point" transform="translate(460.74,87.29)" style="opacity: 1; stroke-width: 0px; fill: rgb(4, 134, 125); fill-opacity: 1;" d="M3,0A3,3 0 1,1 0,-3A3,3 0 0,1 3,0Z"/><path class="point" transform="translate(476.1,113.27)" style="opacity: 1; stroke-width: 0px; fill: rgb(4, 134, 125); fill-opacity: 1;" d="M3,0A3,3 0 1,1 0,-3A3,3 0 0,1 3,0Z"/><path class="point" transform="translate(491.47,74.3)" style="opacity: 1; stroke-width: 0px; fill: rgb(4, 134, 125); fill-opacity: 1;" d="M3,0A3,3 0 1,1 0,-3A3,3 0 0,1 3,0Z"/><path class="point" transform="translate(506.83,28.85)" style="opacity: 1; stroke-width: 0px; fill: rgb(4, 134, 125); fill-opacity: 1;" d="M3,0A3,3 0 1,1 0,-3A3,3 0 0,1 3,0Z"/><path class="point" transform="translate(522.19,87.29)" style="opacity: 1; stroke-width: 0px; fill: rgb(4, 134, 125); fill-opacity: 1;" d="M3,0A3,3 0 1,1 0,-3A3,3 0 0,1 3,0Z"/><path class="point" transform="translate(537.55,119.76)" style="opacity: 1; stroke-width: 0px; fill: rgb(4, 134, 125); fill-opacity: 1;" d="M3,0A3,3 0 1,1 0,-3A3,3 0 0,1 3,0Z"/><path class="point" transform="translate(552.91,74.3)" style="opacity: 1; stroke-width: 0px; fill: rgb(4, 134, 125); fill-opacity: 1;" d="M3,0A3,3 0 1,1 0,-3A3,3 0 0,1 3,0Z"/><path class="point" transform="translate(568.27,106.77)" style="opacity: 1; stroke-width: 0px; fill: rgb(4, 134, 125); fill-opacity: 1;" d="M3,0A3,3 0 1,1 0,-3A3,3 0 0,1 3,0Z"/><path class="point" transform="translate(583.63,67.81)" style="opacity: 1; stroke-width: 0px; fill: rgb(4, 134, 125); fill-opacity: 1;" d="M3,0A3,3 0 1,1 0,-3A3,3 0 0,1 3,0Z"/><path class="point" transform="translate(598.99,113.27)" style="opacity: 1; stroke-width: 0px; fill: rgb(4, 134, 125); fill-opacity: 1;" d="M3,0A3,3 0 1,1 0,-3A3,3 0 0,1 3,0Z"/><path class="point" transform="translate(614.36,54.82)" style="opacity: 1; stroke-width: 0px; fill: rgb(4, 134, 125); fill-opacity: 1;" d="M3,0A3,3 0 1,1 0,-3A3,3 0 0,1 3,0Z"/><path class="point" transform="translate(629.72,35.34)" style="opacity: 1; stroke-width: 0px; fill: rgb(4, 134, 125); fill-opacity: 1;" d="M3,0A3,3 0 1,1 0,-3A3,3 0 0,1 3,0Z"/><path class="point" transform="translate(645.08,54.82)" style="opacity: 1; stroke-width: 0px; fill: rgb(4, 134, 125); fill-opacity: 1;" d="M3,0A3,3 0 1,1 0,-3A3,3 0 0,1 3,0Z"/><path class="point" transform="translate(660.44,48.33)" style="opacity: 1; stroke-width: 0px; fill: rgb(4, 134, 125); fill-opacity: 1;" d="M3,0A3,3 0 1,1 0,-3A3,3 0 0,1 3,0Z"/><path class="point" transform="translate(675.8,93.78)" style="opacity: 1; stroke-width: 0px; fill: rgb(4, 134, 125); fill-opacity: 1;" d="M3,0A3,3 0 1,1 0,-3A3,3 0 0,1 3,0Z"/><path class="point" transform="translate(691.16,28.85)" style="opacity: 1; stroke-width: 0px; fill: rgb(4, 134, 125); fill-opacity: 1;" d="M3,0A3,3 0 1,1 0,-3A3,3 0 0,1 3,0Z"/></g><g class="text"/></g><g class="trace scatter traced232ab" style="stroke-miterlimit: 2; opacity: 1;"><g class="fills"/><g class="errorbars"/><g class="lines"><path class="js-line" style="vector-effect: non-scaling-stroke; fill: none; stroke: rgb(242, 190, 136); stroke-opacity: 1; stroke-width: 2px; opacity: 1;" d="M61.35,437.94L76.71,321.06L92.07,275.6L107.43,282.1L122.8,327.55L138.16,275.6L153.52,269.11L168.88,243.13L184.24,171.71L199.6,223.65L214.96,236.64L230.32,145.73L245.69,197.68L261.05,145.73L276.41,223.65L291.77,152.23L307.13,197.68L322.49,171.71L337.85,119.76L353.21,126.25L368.58,126.25L383.94,80.8L399.3,178.2L414.66,171.71L430.02,113.27L445.38,145.73L460.74,158.72L491.47,132.75L506.83,152.23L522.19,80.8L537.55,126.25L552.91,100.28L568.27,80.8L583.63,80.8L598.99,48.33L614.36,61.32L629.72,87.29L645.08,100.28L660.44,93.78L675.8,126.25L691.16,54.82L706.52,106.77L721.88,67.81L737.25,74.3L752.61,61.32L767.97,87.29L783.33,74.3L798.69,61.32L814.05,113.27L829.41,35.34L844.77,93.78L860.14,93.78L875.5,67.81L890.86,54.82L906.22,54.82L921.58,93.78L936.94,87.29L952.3,61.32L967.66,74.3L983.03,93.78L998.39,100.28L1013.75,93.78L1029.11,106.77L1044.47,41.84L1059.83,119.76L1075.19,126.25L1090.55,35.34"/></g><g class="points"/><g class="text"/></g><g class="trace scatter tracecb9741" style="stroke-miterlimit: 2; opacity: 1;"><g class="fills"/><g class="errorbars"/><g class="lines"><path class="js-line" style="vector-effect: non-scaling-stroke; fill: none; stroke: rgb(230, 91, 119); stroke-opacity: 1; stroke-width: 2px; opacity: 1;" d="M61.35,457.42L76.71,334.04L92.07,269.11L107.43,269.11L122.8,230.15L138.16,152.23L153.52,171.71L168.88,204.17L184.24,158.72L199.6,256.12L214.96,197.68L230.32,184.69L245.69,132.75L261.05,145.73L276.41,113.27L291.77,152.23L307.13,184.69L322.49,100.28L337.85,119.76L353.21,152.23L368.58,132.75L383.94,113.27L399.3,67.81L414.66,87.29L430.02,139.24L445.38,106.77L460.74,126.25L476.1,93.78L491.47,100.28L506.83,106.77L522.19,119.76L537.55,158.72L552.91,93.78L568.27,93.78L583.63,67.81L598.99,93.78L614.36,106.77L629.72,48.33L645.08,80.8L660.44,87.29L675.8,80.8L691.16,67.81L706.52,93.78L721.88,126.25L737.25,132.75L752.61,106.77L767.97,113.27L783.33,113.27L798.69,67.81L814.05,100.28L829.41,119.76L844.77,87.29L860.14,61.32L875.5,74.3L890.86,126.25L906.22,100.28L921.58,132.75L936.94,67.81L952.3,93.78L967.66,48.33"/></g><g class="points"/><g class="text"/></g><g class="trace scatter tracebc50dc" style="stroke-miterlimit: 2; opacity: 1;"><g class="fills"/><g class="errorbars"/><g class="lines"><path class="js-line" style="vector-effect: non-scaling-stroke; fill: none; stroke: rgb(17, 80, 38); stroke-opacity: 1; stroke-width: 2px; opacity: 1;" d="M61.35,411.97L76.71,405.47L92.07,334.04L107.43,314.56L122.8,236.64L138.16,262.62L153.52,184.69L168.88,217.16L184.24,197.68L199.6,210.67L214.96,204.17L230.32,158.72L245.69,249.63L261.05,119.76L276.41,119.76L291.77,165.21L307.13,80.8L322.49,139.24L337.85,106.77L353.21,106.77L368.58,74.3L383.94,93.78L399.3,132.75L430.02,119.76L445.38,165.21L460.74,217.16L476.1,126.25L491.47,126.25L506.83,119.76L522.19,119.76L537.55,165.21L552.91,106.77L568.27,145.73L583.63,106.77L598.99,152.23L614.36,119.76L629.72,100.28L645.08,93.78L660.44,93.78L675.8,48.33L691.16,132.75L721.88,106.77L737.25,139.24L767.97,87.29L783.33,93.78L798.69,165.21L814.05,113.27L829.41,100.28L844.77,74.3L860.14,126.25L875.5,80.8L890.86,93.78L906.22,139.24L921.58,132.75L936.94,93.78L952.3,80.8L967.66,93.78L983.03,67.81L998.39,80.8L1013.75,48.33"/></g><g class="points"/><g class="text"/></g><g class="trace scatter trace1f974e" style="stroke-miterlimit: 2; opacity: 1;"><g class="fills"/><g class="errorbars"/><g class="lines"><path class="js-line" style="vector-effect: non-scaling-stroke; fill: none; stroke: rgb(131, 150, 165); stroke-opacity: 1; stroke-width: 2px; opacity: 1;" d="M61.35,405.47L76.71,327.55L92.07,314.56L107.43,301.58L122.8,217.16L138.16,210.67L153.52,152.23L168.88,223.65L184.24,217.16L199.6,178.2L214.96,132.75L230.32,184.69L245.69,126.25L261.05,139.24L276.41,191.19L291.77,152.23L307.13,145.73L322.49,165.21L337.85,197.68L353.21,158.72L368.58,152.23L383.94,100.28L399.3,152.23L414.66,152.23L430.02,119.76L445.38,178.2L460.74,139.24L476.1,119.76L491.47,113.27L506.83,100.28L522.19,80.8L552.91,93.78L568.27,126.25L583.63,132.75L598.99,93.78L614.36,119.76L629.72,87.29L645.08,80.8L660.44,100.28L675.8,74.3L691.16,113.27L706.52,80.8L721.88,93.78L737.25,80.8L752.61,80.8L767.97,80.8L783.33,48.33L798.69,93.78L814.05,67.81L829.41,126.25L844.77,93.78L860.14,87.29L875.5,171.71L890.86,61.32L906.22,87.29L921.58,100.28L936.94,67.81L952.3,48.33L967.66,106.77L983.03,106.77L998.39,48.33L1013.75,74.3L1029.11,67.81L1044.47,48.33"/></g><g class="points"/><g class="text"/></g><g class="trace scatter trace4a8ff2" style="stroke-miterlimit: 2; opacity: 1;"><g class="fills"/><g class="errorbars"/><g class="lines"><path class="js-line" style="vector-effect: non-scaling-stroke; fill: none; stroke: rgb(200, 45, 76); stroke-opacity: 1; stroke-width: 2px; opacity: 1;" d="M61.35,476.9L76.71,444.43L92.07,308.07L107.43,334.04L122.8,249.63L138.16,327.55L153.52,249.63L168.88,282.1L184.24,256.12L199.6,262.62L214.96,243.13L230.32,204.17L245.69,243.13L261.05,204.17L276.41,230.15L291.77,269.11L307.13,230.15L322.49,217.16L337.85,126.25L353.21,275.6L368.58,158.72L383.94,152.23L399.3,126.25L414.66,184.69L430.02,126.25L445.38,119.76L460.74,126.25L476.1,145.73L491.47,119.76L506.83,80.8L522.19,106.77L537.55,119.76L552.91,139.24L568.27,139.24L583.63,87.29L598.99,145.73L614.36,191.19L629.72,87.29L645.08,100.28L675.8,113.27L691.16,87.29L706.52,87.29L721.88,80.8L752.61,106.77L767.97,106.77L783.33,132.75L798.69,126.25L814.05,74.3L829.41,93.78L844.77,106.77L860.14,126.25L875.5,158.72L890.86,100.28L906.22,100.28L921.58,93.78L936.94,113.27L952.3,119.76L967.66,171.71L983.03,132.75L998.39,132.75L1013.75,126.25L1029.11,119.76L1044.47,132.75L1059.83,158.72L1075.19,197.68L1090.55,106.77L1105.92,139.24L1121.28,132.75L1136.64,87.29L1152,74.3"/></g><g class="points"/><g class="text"/></g><g class="trace scatter trace71ac69" style="stroke-miterlimit: 2; opacity: 1;"><g class="fills"/><g class="errorbars"/><g class="lines"><path class="js-line" style="vector-effect: non-scaling-stroke; fill: none; stroke: rgb(200, 50, 67); stroke-opacity: 1; stroke-width: 2px; opacity: 1;" d="M61.35,366.51L76.71,340.54L92.07,282.1L107.43,301.58L122.8,360.02L138.16,204.17L153.52,262.62L168.88,119.76L184.24,100.28L199.6,152.23L214.96,132.75L230.32,100.28L245.69,152.23L261.05,80.8L276.41,113.27L291.77,243.13L307.13,152.23L322.49,158.72L337.85,158.72L353.21,204.17L368.58,139.24L383.94,152.23L399.3,152.23L414.66,126.25L430.02,139.24L445.38,80.8L460.74,132.75L476.1,132.75L491.47,87.29L506.83,87.29L522.19,80.8"/></g><g class="points"><path class="point" transform="translate(61.35,366.51)" style="opacity: 1; stroke-width: 0px; fill: rgb(200, 50, 67); fill-opacity: 1;" d="M3,0A3,3 0 1,1 0,-3A3,3 0 0,1 3,0Z"/><path class="point" transform="translate(76.71,340.54)" style="opacity: 1; stroke-width: 0px; fill: rgb(200, 50, 67); fill-opacity: 1;" d="M3,0A3,3 0 1,1 0,-3A3,3 0 0,1 3,0Z"/><path class="point" transform="translate(92.07,282.1)" style="opacity: 1; stroke-width: 0px; fill: rgb(200, 50, 67); fill-opacity: 1;" d="M3,0A3,3 0 1,1 0,-3A3,3 0 0,1 3,0Z"/><path class="point" transform="translate(107.43,301.58)" style="opacity: 1; stroke-width: 0px; fill: rgb(200, 50, 67); fill-opacity: 1;" d="M3,0A3,3 0 1,1 0,-3A3,3 0 0,1 3,0Z"/><path class="point" transform="translate(122.8,360.02)" style="opacity: 1; stroke-width: 0px; fill: rgb(200, 50, 67); fill-opacity: 1;" d="M3,0A3,3 0 1,1 0,-3A3,3 0 0,1 3,0Z"/><path class="point" transform="translate(138.16,204.17)" style="opacity: 1; stroke-width: 0px; fill: rgb(200, 50, 67); fill-opacity: 1;" d="M3,0A3,3 0 1,1 0,-3A3,3 0 0,1 3,0Z"/><path class="point" transform="translate(153.52,262.62)" style="opacity: 1; stroke-width: 0px; fill: rgb(200, 50, 67); fill-opacity: 1;" d="M3,0A3,3 0 1,1 0,-3A3,3 0 0,1 3,0Z"/><path class="point" transform="translate(168.88,119.76)" style="opacity: 1; stroke-width: 0px; fill: rgb(200, 50, 67); fill-opacity: 1;" d="M3,0A3,3 0 1,1 0,-3A3,3 0 0,1 3,0Z"/><path class="point" transform="translate(184.24,100.28)" style="opacity: 1; stroke-width: 0px; fill: rgb(200, 50, 67); fill-opacity: 1;" d="M3,0A3,3 0 1,1 0,-3A3,3 0 0,1 3,0Z"/><path class="point" transform="translate(199.6,152.23)" style="opacity: 1; stroke-width: 0px; fill: rgb(200, 50, 67); fill-opacity: 1;" d="M3,0A3,3 0 1,1 0,-3A3,3 0 0,1 3,0Z"/><path class="point" transform="translate(214.96,132.75)" style="opacity: 1; stroke-width: 0px; fill: rgb(200, 50, 67); fill-opacity: 1;" d="M3,0A3,3 0 1,1 0,-3A3,3 0 0,1 3,0Z"/><path class="point" transform="translate(230.32,100.28)" style="opacity: 1; stroke-width: 0px; fill: rgb(200, 50, 67); fill-opacity: 1;" d="M3,0A3,3 0 1,1 0,-3A3,3 0 0,1 3,0Z"/><path class="point" transform="translate(245.69,152.23)" style="opacity: 1; stroke-width: 0px; fill: rgb(200, 50, 67); fill-opacity: 1;" d="M3,0A3,3 0 1,1 0,-3A3,3 0 0,1 3,0Z"/><path class="point" transform="translate(261.05,80.8)" style="opacity: 1; stroke-width: 0px; fill: rgb(200, 50, 67); fill-opacity: 1;" d="M3,0A3,3 0 1,1 0,-3A3,3 0 0,1 3,0Z"/><path class="point" transform="translate(276.41,113.27)" style="opacity: 1; stroke-width: 0px; fill: rgb(200, 50, 67); fill-opacity: 1;" d="M3,0A3,3 0 1,1 0,-3A3,3 0 0,1 3,0Z"/><path class="point" transform="translate(291.77,243.13)" style="opacity: 1; stroke-width: 0px; fill: rgb(200, 50, 67); fill-opacity: 1;" d="M3,0A3,3 0 1,1 0,-3A3,3 0 0,1 3,0Z"/><path class="point" transform="translate(307.13,152.23)" style="opacity: 1; stroke-width: 0px; fill: rgb(200, 50, 67); fill-opacity: 1;" d="M3,0A3,3 0 1,1 0,-3A3,3 0 0,1 3,0Z"/><path class="point" transform="translate(322.49,158.72)" style="opacity: 1; stroke-width: 0px; fill: rgb(200, 50, 67); fill-opacity: 1;" d="M3,0A3,3 0 1,1 0,-3A3,3 0 0,1 3,0Z"/><path class="point" transform="translate(337.85,158.72)" style="opacity: 1; stroke-width: 0px; fill: rgb(200, 50, 67); fill-opacity: 1;" d="M3,0A3,3 0 1,1 0,-3A3,3 0 0,1 3,0Z"/><path class="point" transform="translate(353.21,204.17)" style="opacity: 1; stroke-width: 0px; fill: rgb(200, 50, 67); fill-opacity: 1;" d="M3,0A3,3 0 1,1 0,-3A3,3 0 0,1 3,0Z"/><path class="point" transform="translate(368.58,139.24)" style="opacity: 1; stroke-width: 0px; fill: rgb(200, 50, 67); fill-opacity: 1;" d="M3,0A3,3 0 1,1 0,-3A3,3 0 0,1 3,0Z"/><path class="point" transform="translate(383.94,152.23)" style="opacity: 1; stroke-width: 0px; fill: rgb(200, 50, 67); fill-opacity: 1;" d="M3,0A3,3 0 1,1 0,-3A3,3 0 0,1 3,0Z"/><path class="point" transform="translate(399.3,152.23)" style="opacity: 1; stroke-width: 0px; fill: rgb(200, 50, 67); fill-opacity: 1;" d="M3,0A3,3 0 1,1 0,-3A3,3 0 0,1 3,0Z"/><path class="point" transform="translate(414.66,126.25)" style="opacity: 1; stroke-width: 0px; fill: rgb(200, 50, 67); fill-opacity: 1;" d="M3,0A3,3 0 1,1 0,-3A3,3 0 0,1 3,0Z"/><path class="point" transform="translate(430.02,139.24)" style="opacity: 1; stroke-width: 0px; fill: rgb(200, 50, 67); fill-opacity: 1;" d="M3,0A3,3 0 1,1 0,-3A3,3 0 0,1 3,0Z"/><path class="point" transform="translate(445.38,80.8)" style="opacity: 1; stroke-width: 0px; fill: rgb(200, 50, 67); fill-opacity: 1;" d="M3,0A3,3 0 1,1 0,-3A3,3 0 0,1 3,0Z"/><path class="point" transform="translate(460.74,132.75)" style="opacity: 1; stroke-width: 0px; fill: rgb(200, 50, 67); fill-opacity: 1;" d="M3,0A3,3 0 1,1 0,-3A3,3 0 0,1 3,0Z"/><path class="point" transform="translate(476.1,132.75)" style="opacity: 1; stroke-width: 0px; fill: rgb(200, 50, 67); fill-opacity: 1;" d="M3,0A3,3 0 1,1 0,-3A3,3 0 0,1 3,0Z"/><path class="point" transform="translate(491.47,87.29)" style="opacity: 1; stroke-width: 0px; fill: rgb(200, 50, 67); fill-opacity: 1;" d="M3,0A3,3 0 1,1 0,-3A3,3 0 0,1 3,0Z"/><path class="point" transform="translate(506.83,87.29)" style="opacity: 1; stroke-width: 0px; fill: rgb(200, 50, 67); fill-opacity: 1;" d="M3,0A3,3 0 1,1 0,-3A3,3 0 0,1 3,0Z"/><path class="point" transform="translate(522.19,80.8)" style="opacity: 1; stroke-width: 0px; fill: rgb(200, 50, 67); fill-opacity: 1;" d="M3,0A3,3 0 1,1 0,-3A3,3 0 0,1 3,0Z"/></g><g class="text"/></g><g class="trace scatter trace5617d9" style="stroke-miterlimit: 2; opacity: 1;"><g class="fills"/><g class="errorbars"/><g class="lines"><path class="js-line" style="vector-effect: non-scaling-stroke; fill: none; stroke: rgb(200, 50, 67); stroke-opacity: 1; stroke-width: 2px; opacity: 1;" d="M61.35,418.46L76.71,366.51L92.07,236.64L107.43,249.63L122.8,249.63L138.16,262.62L153.52,152.23L168.88,243.13L184.24,223.65L199.6,204.17L214.96,152.23L230.32,184.69L245.69,139.24L261.05,158.72L276.41,165.21L291.77,184.69L307.13,139.24L322.49,139.24L337.85,158.72L353.21,178.2L368.58,158.72L383.94,139.24L399.3,100.28L414.66,132.75L430.02,119.76L445.38,113.27L460.74,145.73L476.1,100.28L491.47,119.76L506.83,106.77L522.19,106.77L537.55,113.27L552.91,132.75L568.27,119.76L583.63,100.28"/></g><g class="points"><path class="point" transform="translate(61.35,418.46)" style="opacity: 1; stroke-width: 0px; fill: rgb(200, 50, 67); fill-opacity: 1;" d="M3,0A3,3 0 1,1 0,-3A3,3 0 0,1 3,0Z"/><path class="point" transform="translate(76.71,366.51)" style="opacity: 1; stroke-width: 0px; fill: rgb(200, 50, 67); fill-opacity: 1;" d="M3,0A3,3 0 1,1 0,-3A3,3 0 0,1 3,0Z"/><path class="point" transform="translate(92.07,236.64)" style="opacity: 1; stroke-width: 0px; fill: rgb(200, 50, 67); fill-opacity: 1;" d="M3,0A3,3 0 1,1 0,-3A3,3 0 0,1 3,0Z"/><path class="point" transform="translate(107.43,249.63)" style="opacity: 1; stroke-width: 0px; fill: rgb(200, 50, 67); fill-opacity: 1;" d="M3,0A3,3 0 1,1 0,-3A3,3 0 0,1 3,0Z"/><path class="point" transform="translate(122.8,249.63)" style="opacity: 1; stroke-width: 0px; fill: rgb(200, 50, 67); fill-opacity: 1;" d="M3,0A3,3 0 1,1 0,-3A3,3 0 0,1 3,0Z"/><path class="point" transform="translate(138.16,262.62)" style="opacity: 1; stroke-width: 0px; fill: rgb(200, 50, 67); fill-opacity: 1;" d="M3,0A3,3 0 1,1 0,-3A3,3 0 0,1 3,0Z"/><path class="point" transform="translate(153.52,152.23)" style="opacity: 1; stroke-width: 0px; fill: rgb(200, 50, 67); fill-opacity: 1;" d="M3,0A3,3 0 1,1 0,-3A3,3 0 0,1 3,0Z"/><path class="point" transform="translate(168.88,243.13)" style="opacity: 1; stroke-width: 0px; fill: rgb(200, 50, 67); fill-opacity: 1;" d="M3,0A3,3 0 1,1 0,-3A3,3 0 0,1 3,0Z"/><path class="point" transform="translate(184.24,223.65)" style="opacity: 1; stroke-width: 0px; fill: rgb(200, 50, 67); fill-opacity: 1;" d="M3,0A3,3 0 1,1 0,-3A3,3 0 0,1 3,0Z"/><path class="point" transform="translate(199.6,204.17)" style="opacity: 1; stroke-width: 0px; fill: rgb(200, 50, 67); fill-opacity: 1;" d="M3,0A3,3 0 1,1 0,-3A3,3 0 0,1 3,0Z"/><path class="point" transform="translate(214.96,152.23)" style="opacity: 1; stroke-width: 0px; fill: rgb(200, 50, 67); fill-opacity: 1;" d="M3,0A3,3 0 1,1 0,-3A3,3 0 0,1 3,0Z"/><path class="point" transform="translate(230.32,184.69)" style="opacity: 1; stroke-width: 0px; fill: rgb(200, 50, 67); fill-opacity: 1;" d="M3,0A3,3 0 1,1 0,-3A3,3 0 0,1 3,0Z"/><path class="point" transform="translate(245.69,139.24)" style="opacity: 1; stroke-width: 0px; fill: rgb(200, 50, 67); fill-opacity: 1;" d="M3,0A3,3 0 1,1 0,-3A3,3 0 0,1 3,0Z"/><path class="point" transform="translate(261.05,158.72)" style="opacity: 1; stroke-width: 0px; fill: rgb(200, 50, 67); fill-opacity: 1;" d="M3,0A3,3 0 1,1 0,-3A3,3 0 0,1 3,0Z"/><path class="point" transform="translate(276.41,165.21)" style="opacity: 1; stroke-width: 0px; fill: rgb(200, 50, 67); fill-opacity: 1;" d="M3,0A3,3 0 1,1 0,-3A3,3 0 0,1 3,0Z"/><path class="point" transform="translate(291.77,184.69)" style="opacity: 1; stroke-width: 0px; fill: rgb(200, 50, 67); fill-opacity: 1;" d="M3,0A3,3 0 1,1 0,-3A3,3 0 0,1 3,0Z"/><path class="point" transform="translate(307.13,139.24)" style="opacity: 1; stroke-width: 0px; fill: rgb(200, 50, 67); fill-opacity: 1;" d="M3,0A3,3 0 1,1 0,-3A3,3 0 0,1 3,0Z"/><path class="point" transform="translate(322.49,139.24)" style="opacity: 1; stroke-width: 0px; fill: rgb(200, 50, 67); fill-opacity: 1;" d="M3,0A3,3 0 1,1 0,-3A3,3 0 0,1 3,0Z"/><path class="point" transform="translate(337.85,158.72)" style="opacity: 1; stroke-width: 0px; fill: rgb(200, 50, 67); fill-opacity: 1;" d="M3,0A3,3 0 1,1 0,-3A3,3 0 0,1 3,0Z"/><path class="point" transform="translate(353.21,178.2)" style="opacity: 1; stroke-width: 0px; fill: rgb(200, 50, 67); fill-opacity: 1;" d="M3,0A3,3 0 1,1 0,-3A3,3 0 0,1 3,0Z"/><path class="point" transform="translate(368.58,158.72)" style="opacity: 1; stroke-width: 0px; fill: rgb(200, 50, 67); fill-opacity: 1;" d="M3,0A3,3 0 1,1 0,-3A3,3 0 0,1 3,0Z"/><path class="point" transform="translate(383.94,139.24)" style="opacity: 1; stroke-width: 0px; fill: rgb(200, 50, 67); fill-opacity: 1;" d="M3,0A3,3 0 1,1 0,-3A3,3 0 0,1 3,0Z"/><path class="point" transform="translate(399.3,100.28)" style="opacity: 1; stroke-width: 0px; fill: rgb(200, 50, 67); fill-opacity: 1;" d="M3,0A3,3 0 1,1 0,-3A3,3 0 0,1 3,0Z"/><path class="point" transform="translate(414.66,132.75)" style="opacity: 1; stroke-width: 0px; fill: rgb(200, 50, 67); fill-opacity: 1;" d="M3,0A3,3 0 1,1 0,-3A3,3 0 0,1 3,0Z"/><path class="point" transform="translate(430.02,119.76)" style="opacity: 1; stroke-width: 0px; fill: rgb(200, 50, 67); fill-opacity: 1;" d="M3,0A3,3 0 1,1 0,-3A3,3 0 0,1 3,0Z"/><path class="point" transform="translate(445.38,113.27)" style="opacity: 1; stroke-width: 0px; fill: rgb(200, 50, 67); fill-opacity: 1;" d="M3,0A3,3 0 1,1 0,-3A3,3 0 0,1 3,0Z"/><path class="point" transform="translate(460.74,145.73)" style="opacity: 1; stroke-width: 0px; fill: rgb(200, 50, 67); fill-opacity: 1;" d="M3,0A3,3 0 1,1 0,-3A3,3 0 0,1 3,0Z"/><path class="point" transform="translate(476.1,100.28)" style="opacity: 1; stroke-width: 0px; fill: rgb(200, 50, 67); fill-opacity: 1;" d="M3,0A3,3 0 1,1 0,-3A3,3 0 0,1 3,0Z"/><path class="point" transform="translate(491.47,119.76)" style="opacity: 1; stroke-width: 0px; fill: rgb(200, 50, 67); fill-opacity: 1;" d="M3,0A3,3 0 1,1 0,-3A3,3 0 0,1 3,0Z"/><path class="point" transform="translate(506.83,106.77)" style="opacity: 1; stroke-width: 0px; fill: rgb(200, 50, 67); fill-opacity: 1;" d="M3,0A3,3 0 1,1 0,-3A3,3 0 0,1 3,0Z"/><path class="point" transform="translate(522.19,106.77)" style="opacity: 1; stroke-width: 0px; fill: rgb(200, 50, 67); fill-opacity: 1;" d="M3,0A3,3 0 1,1 0,-3A3,3 0 0,1 3,0Z"/><path class="point" transform="translate(537.55,113.27)" style="opacity: 1; stroke-width: 0px; fill: rgb(200, 50, 67); fill-opacity: 1;" d="M3,0A3,3 0 1,1 0,-3A3,3 0 0,1 3,0Z"/><path class="point" transform="translate(552.91,132.75)" style="opacity: 1; stroke-width: 0px; fill: rgb(200, 50, 67); fill-opacity: 1;" d="M3,0A3,3 0 1,1 0,-3A3,3 0 0,1 3,0Z"/><path class="point" transform="translate(568.27,119.76)" style="opacity: 1; stroke-width: 0px; fill: rgb(200, 50, 67); fill-opacity: 1;" d="M3,0A3,3 0 1,1 0,-3A3,3 0 0,1 3,0Z"/><path class="point" transform="translate(583.63,100.28)" style="opacity: 1; stroke-width: 0px; fill: rgb(200, 50, 67); fill-opacity: 1;" d="M3,0A3,3 0 1,1 0,-3A3,3 0 0,1 3,0Z"/></g><g class="text"/></g></g></g><g class="overplot"/><path class="xlines-above crisp" style="fill: none;" d="M0,0"/><path class="ylines-above crisp" style="fill: none;" d="M0,0"/><g class="overlines-above"/><g class="xaxislayer-above"><g class="xtick"><text text-anchor="middle" x="0" y="514" style="font-family: TOBESTRIPPEDOpen SansTOBESTRIPPED, verdana, arial, sans-serif; font-size: 11px; fill: rgb(95, 114, 129); fill-opacity: 1; white-space: pre; opacity: 1;" transform="translate(109.35,0)">0</text></g><g class="xtick"><text text-anchor="middle" x="0" y="514" style="font-family: TOBESTRIPPEDOpen SansTOBESTRIPPED, verdana, arial, sans-serif; font-size: 11px; fill: rgb(95, 114, 129); fill-opacity: 1; white-space: pre; opacity: 1;" transform="translate(262.96000000000004,0)">10</text></g><g class="xtick"><text text-anchor="middle" x="0" y="514" style="font-family: TOBESTRIPPEDOpen SansTOBESTRIPPED, verdana, arial, sans-serif; font-size: 11px; fill: rgb(95, 114, 129); fill-opacity: 1; white-space: pre; opacity: 1;" transform="translate(416.58,0)">20</text></g><g class="xtick"><text text-anchor="middle" x="0" y="514" style="font-family: TOBESTRIPPEDOpen SansTOBESTRIPPED, verdana, arial, sans-serif; font-size: 11px; fill: rgb(95, 114, 129); fill-opacity: 1; white-space: pre; opacity: 1;" transform="translate(570.19,0)">30</text></g><g class="xtick"><text text-anchor="middle" x="0" y="514" style="font-family: TOBESTRIPPEDOpen SansTOBESTRIPPED, verdana, arial, sans-serif; font-size: 11px; fill: rgb(95, 114, 129); fill-opacity: 1; white-space: pre; opacity: 1;" transform="translate(723.8,0)">40</text></g><g class="xtick"><text text-anchor="middle" x="0" y="514" style="font-family: TOBESTRIPPEDOpen SansTOBESTRIPPED, verdana, arial, sans-serif; font-size: 11px; fill: rgb(95, 114, 129); fill-opacity: 1; white-space: pre; opacity: 1;" transform="translate(877.41,0)">50</text></g><g class="xtick"><text text-anchor="middle" x="0" y="514" style="font-family: TOBESTRIPPEDOpen SansTOBESTRIPPED, verdana, arial, sans-serif; font-size: 11px; fill: rgb(95, 114, 129); fill-opacity: 1; white-space: pre; opacity: 1;" transform="translate(1031.03,0)">60</text></g><g class="xtick"><text text-anchor="middle" x="0" y="514" style="font-family: TOBESTRIPPEDOpen SansTOBESTRIPPED, verdana, arial, sans-serif; font-size: 11px; fill: rgb(95, 114, 129); fill-opacity: 1; white-space: pre; opacity: 1;" transform="translate(1184.64,0)">70</text></g></g><g class="yaxislayer-above"><g class="ytick"><text text-anchor="end" x="47" y="3.8499999999999996" style="font-family: TOBESTRIPPEDOpen SansTOBESTRIPPED, verdana, arial, sans-serif; font-size: 11px; fill: rgb(95, 114, 129); fill-opacity: 1; white-space: pre; opacity: 1;" transform="translate(0,461.64)">35</text></g><g class="ytick"><text text-anchor="end" x="47" y="3.8499999999999996" style="font-family: TOBESTRIPPEDOpen SansTOBESTRIPPED, verdana, arial, sans-serif; font-size: 11px; fill: rgb(95, 114, 129); fill-opacity: 1; white-space: pre; opacity: 1;" transform="translate(0,402.87)">40</text></g><g class="ytick"><text text-anchor="end" x="47" y="3.8499999999999996" style="font-family: TOBESTRIPPEDOpen SansTOBESTRIPPED, verdana, arial, sans-serif; font-size: 11px; fill: rgb(95, 114, 129); fill-opacity: 1; white-space: pre; opacity: 1;" transform="translate(0,344.11)">45</text></g><g class="ytick"><text text-anchor="end" x="47" y="3.8499999999999996" style="font-family: TOBESTRIPPEDOpen SansTOBESTRIPPED, verdana, arial, sans-serif; font-size: 11px; fill: rgb(95, 114, 129); fill-opacity: 1; white-space: pre; opacity: 1;" transform="translate(0,285.34)">50</text></g><g class="ytick"><text text-anchor="end" x="47" y="3.8499999999999996" style="font-family: TOBESTRIPPEDOpen SansTOBESTRIPPED, verdana, arial, sans-serif; font-size: 11px; fill: rgb(95, 114, 129); fill-opacity: 1; white-space: pre; opacity: 1;" transform="translate(0,226.58)">55</text></g><g class="ytick"><text text-anchor="end" x="47" y="3.8499999999999996" style="font-family: TOBESTRIPPEDOpen SansTOBESTRIPPED, verdana, arial, sans-serif; font-size: 11px; fill: rgb(95, 114, 129); fill-opacity: 1; white-space: pre; opacity: 1;" transform="translate(0,167.81)">60</text></g><g class="ytick"><text text-anchor="end" x="47" y="3.8499999999999996" style="font-family: TOBESTRIPPEDOpen SansTOBESTRIPPED, verdana, arial, sans-serif; font-size: 11px; fill: rgb(95, 114, 129); fill-opacity: 1; white-space: pre; opacity: 1;" transform="translate(0,109.04)">65</text></g><g class="ytick"><text text-anchor="end" x="47" y="3.8499999999999996" style="font-family: TOBESTRIPPEDOpen SansTOBESTRIPPED, verdana, arial, sans-serif; font-size: 11px; fill: rgb(95, 114, 129); fill-opacity: 1; white-space: pre; opacity: 1;" transform="translate(0,50.28)">70</text></g></g><g class="overaxes-above"/></g></g><g class="polarlayer"/><g class="ternarylayer"/><g class="geolayer"/><g class="funnelarealayer"/><g class="pielayer"/><g class="iciclelayer"/><g class="treemaplayer"/><g class="sunburstlayer"/><g class="glimages"/><defs id="topdefs-0ebab8"><g class="clips"/><clipPath id="legend0ebab8"><rect width="1075" height="48" x="0" y="0"/></clipPath></defs><g class="layer-above"><g class="imagelayer"/><g class="shapelayer"/></g><g class="infolayer"><g class="legend" pointer-events="all" transform="translate(48,552)"><rect class="bg" shape-rendering="crispEdges" style="stroke: rgb(68, 68, 68); stroke-opacity: 1; fill: rgb(255, 255, 255); fill-opacity: 1; stroke-width: 0px;" width="1075" height="48" x="0" y="0"/><g class="scrollbox" transform="" clip-path="url(#legend0ebab8)"><g class="groups"><g class="traces" style="opacity: 1;" transform="translate(0,14.5)"><text class="legendtext" text-anchor="start" style="font-family: TOBESTRIPPEDOpen SansTOBESTRIPPED, verdana, arial, sans-serif; font-size: 12px; fill: rgb(17, 23, 28); fill-opacity: 1; white-space: pre;" x="40" y="4.680000000000001">prueba con dilation</text><g class="layers" style="opacity: 1;"><g class="legendfill"/><g class="legendlines"><path class="js-line" d="M5,0h30" style="fill: none; stroke: rgb(4, 134, 125); stroke-opacity: 1; stroke-width: 2px;"/></g><g class="legendsymbols"><g class="legendpoints"><path class="scatterpts" transform="translate(20,0)" style="opacity: 1; stroke-width: 0px; fill: rgb(4, 134, 125); fill-opacity: 1;" d="M3,0A3,3 0 1,1 0,-3A3,3 0 0,1 3,0Z"/></g></g></g><rect class="legendtoggle" style="fill: rgb(0, 0, 0); fill-opacity: 0;" x="0" y="-9.5" width="146.28334045410156" height="19"/></g><g class="traces" style="opacity: 1;" transform="translate(153.43333435058594,14.5)"><text class="legendtext" text-anchor="start" style="font-family: TOBESTRIPPEDOpen SansTOBESTRIPPED, verdana, arial, sans-serif; font-size: 12px; fill: rgb(17, 23, 28); fill-opacity: 1; white-space: pre;" x="40" y="4.680000000000001">input=90, kernel=4</text><g class="layers" style="opacity: 1;"><g class="legendfill"/><g class="legendlines"><path class="js-line" d="M5,0h30" style="fill: none; stroke: rgb(242, 190, 136); stroke-opacity: 1; stroke-width: 2px;"/></g><g class="legendsymbols"><g class="legendpoints"/></g></g><rect class="legendtoggle" style="fill: rgb(0, 0, 0); fill-opacity: 0;" x="0" y="-9.5" width="144.28334045410156" height="19"/></g><g class="traces" style="opacity: 1;" transform="translate(306.8666687011719,14.5)"><text class="legendtext" text-anchor="start" style="font-family: TOBESTRIPPEDOpen SansTOBESTRIPPED, verdana, arial, sans-serif; font-size: 12px; fill: rgb(17, 23, 28); fill-opacity: 1; white-space: pre;" x="40" y="4.680000000000001">input=100, kernel=5</text><g class="layers" style="opacity: 1;"><g class="legendfill"/><g class="legendlines"><path class="js-line" d="M5,0h30" style="fill: none; stroke: rgb(230, 91, 119); stroke-opacity: 1; stroke-width: 2px;"/></g><g class="legendsymbols"><g class="legendpoints"/></g></g><rect class="legendtoggle" style="fill: rgb(0, 0, 0); fill-opacity: 0;" x="0" y="-9.5" width="150.93333435058594" height="19"/></g><g class="traces" style="opacity: 1;" transform="translate(460.3000030517578,14.5)"><text class="legendtext" text-anchor="start" style="font-family: TOBESTRIPPEDOpen SansTOBESTRIPPED, verdana, arial, sans-serif; font-size: 12px; fill: rgb(17, 23, 28); fill-opacity: 1; white-space: pre;" x="40" y="4.680000000000001">input=200, kernel=4</text><g class="layers" style="opacity: 1;"><g class="legendfill"/><g class="legendlines"><path class="js-line" d="M5,0h30" style="fill: none; stroke: rgb(17, 80, 38); stroke-opacity: 1; stroke-width: 2px;"/></g><g class="legendsymbols"><g class="legendpoints"/></g></g><rect class="legendtoggle" style="fill: rgb(0, 0, 0); fill-opacity: 0;" x="0" y="-9.5" width="150.93333435058594" height="19"/></g><g class="traces" style="opacity: 1;" transform="translate(613.7333374023438,14.5)"><text class="legendtext" text-anchor="start" style="font-family: TOBESTRIPPEDOpen SansTOBESTRIPPED, verdana, arial, sans-serif; font-size: 12px; fill: rgb(17, 23, 28); fill-opacity: 1; white-space: pre;" x="40" y="4.680000000000001">input=90, kernel=3</text><g class="layers" style="opacity: 1;"><g class="legendfill"/><g class="legendlines"><path class="js-line" d="M5,0h30" style="fill: none; stroke: rgb(131, 150, 165); stroke-opacity: 1; stroke-width: 2px;"/></g><g class="legendsymbols"><g class="legendpoints"/></g></g><rect class="legendtoggle" style="fill: rgb(0, 0, 0); fill-opacity: 0;" x="0" y="-9.5" width="144.28334045410156" height="19"/></g><g class="traces" style="opacity: 1;" transform="translate(767.1666717529297,14.5)"><text class="legendtext" text-anchor="start" style="font-family: TOBESTRIPPEDOpen SansTOBESTRIPPED, verdana, arial, sans-serif; font-size: 12px; fill: rgb(17, 23, 28); fill-opacity: 1; white-space: pre;" x="40" y="4.680000000000001">input=200, kernel=5</text><g class="layers" style="opacity: 1;"><g class="legendfill"/><g class="legendlines"><path class="js-line" d="M5,0h30" style="fill: none; stroke: rgb(200, 45, 76); stroke-opacity: 1; stroke-width: 2px;"/></g><g class="legendsymbols"><g class="legendpoints"/></g></g><rect class="legendtoggle" style="fill: rgb(0, 0, 0); fill-opacity: 0;" x="0" y="-9.5" width="150.93333435058594" height="19"/></g><g class="traces" style="opacity: 1;" transform="translate(920.6000061035156,14.5)"><text class="legendtext" text-anchor="start" style="font-family: TOBESTRIPPEDOpen SansTOBESTRIPPED, verdana, arial, sans-serif; font-size: 12px; fill: rgb(17, 23, 28); fill-opacity: 1; white-space: pre;" x="40" y="4.680000000000001">input=128, kernel=4</text><g class="layers" style="opacity: 1;"><g class="legendfill"/><g class="legendlines"><path class="js-line" d="M5,0h30" style="fill: none; stroke: rgb(200, 50, 67); stroke-opacity: 1; stroke-width: 2px;"/></g><g class="legendsymbols"><g class="legendpoints"><path class="scatterpts" transform="translate(20,0)" style="opacity: 1; stroke-width: 0px; fill: rgb(200, 50, 67); fill-opacity: 1;" d="M3,0A3,3 0 1,1 0,-3A3,3 0 0,1 3,0Z"/></g></g></g><rect class="legendtoggle" style="fill: rgb(0, 0, 0); fill-opacity: 0;" x="0" y="-9.5" width="150.93333435058594" height="19"/></g><g class="traces" style="opacity: 1;" transform="translate(0,33.5)"><text class="legendtext" text-anchor="start" style="font-family: TOBESTRIPPEDOpen SansTOBESTRIPPED, verdana, arial, sans-serif; font-size: 12px; fill: rgb(17, 23, 28); fill-opacity: 1; white-space: pre;" x="40" y="4.680000000000001">input=100, kernel=2</text><g class="layers" style="opacity: 1;"><g class="legendfill"/><g class="legendlines"><path class="js-line" d="M5,0h30" style="fill: none; stroke: rgb(200, 50, 67); stroke-opacity: 1; stroke-width: 2px;"/></g><g class="legendsymbols"><g class="legendpoints"><path class="scatterpts" transform="translate(20,0)" style="opacity: 1; stroke-width: 0px; fill: rgb(200, 50, 67); fill-opacity: 1;" d="M3,0A3,3 0 1,1 0,-3A3,3 0 0,1 3,0Z"/></g></g></g><rect class="legendtoggle" style="fill: rgb(0, 0, 0); fill-opacity: 0;" x="0" y="-9.5" width="150.93333435058594" height="19"/></g></g></g><rect class="scrollbar" rx="20" ry="3" width="0" height="0" style="fill: rgb(128, 139, 164); fill-opacity: 1;" x="0" y="0"/></g><g class="g-gtitle"/><g class="g-xtitle"><text class="xtitle" style="font-family: TOBESTRIPPEDOpen SansTOBESTRIPPED, verdana, arial, sans-serif; font-size: 14px; fill: rgb(17, 23, 28); opacity: 1; font-weight: normal; white-space: pre;" x="624" y="554" text-anchor="middle">Step</text></g><g class="g-ytitle"/></g></svg>